<?xml version="1.0" encoding="UTF-8"?>
<svg xmlns="http://www.w3.org/2000/svg" width="52" height="48" viewBox="0 0 52 48" fill="none">
  <path d="M47.2 7.1395C47.2 16.9367 9.44 16.5447 9.44 26.3419C9.44 34.5714 47.2 34.1795 47.2 42.801C47.2 48.8506 23.9608 48.3399 10.0954 47.4968C4.35044 47.1475 0 42.3359 0 36.5803V10.9582C0 5.06076 4.56498 0.182868 10.4611 0.0590823C24.3653 -0.232827 47.2 0.325104 47.2 7.1395Z" fill="#12132C"/>
  <path d="M4 40.8605C4 31.0633 41.76 31.4553 41.76 21.6581C41.76 13.4286 4 13.8205 4 5.19897C4 -0.850579 27.2392 -0.339892 41.1046 0.503177C46.8496 0.852493 51.2 5.66411 51.2 11.4197V37.0418C51.2 42.9392 46.635 47.8171 40.7389 47.9409C26.8347 48.2328 4 47.6749 4 40.8605Z" fill="#12132C"/>
</svg>
